<svg xmlns="http://www.w3.org/2000/svg" xmlns:xlink="http://www.w3.org/1999/xlink" width="209" height="112.355" viewBox="0 0 209 112.355">
  <defs>
    <filter id="Path_3" x="88.821" y="0" width="24.003" height="28.524" filterUnits="userSpaceOnUse">
      <feOffset dy="3" input="SourceAlpha"/>
      <feGaussianBlur stdDeviation="3" result="blur"/>
      <feFlood flood-opacity="0.161"/>
      <feComposite operator="in" in2="blur"/>
      <feComposite in="SourceGraphic"/>
    </filter>
    <filter id="Path_5" x="71.821" y="0" width="24.003" height="28.524" filterUnits="userSpaceOnUse">
      <feOffset dy="3" input="SourceAlpha"/>
      <feGaussianBlur stdDeviation="3" result="blur-2"/>
      <feFlood flood-opacity="0.161"/>
      <feComposite operator="in" in2="blur-2"/>
      <feComposite in="SourceGraphic"/>
    </filter>
  </defs>
  <g id="Group_8" data-name="Group 8" transform="translate(-1153 -1193.645)">
    <g id="Group_7" data-name="Group 7" transform="translate(1 99)">
      <g transform="matrix(1, 0, 0, 1, 1152, 1094.64)" filter="url(#Path_3)" style="mix-blend-mode: darken;isolation: isolate">
        <g id="Path_3-2" data-name="Path 3" transform="translate(103.82 6.2) rotate(92)" fill="#079992" stroke-linecap="round" stroke-linejoin="round">
          <path d="M 9.833376884460449 5.145317554473877 L 0.499996542930603 5.145317554473877 L 0.499996542930603 0.4999973475933075 L 9.833376884460449 0.4999973475933075 L 9.833376884460449 5.145317554473877 Z" stroke="none"/>
          <path d="M 0.9999961853027344 0.9999971389770508 L 0.9999961853027344 4.645317554473877 L 9.333376884460449 4.645317554473877 L 9.333376884460449 0.9999971389770508 L 0.9999961853027344 0.9999971389770508 M -3.814697265625e-06 -2.86102294921875e-06 L 10.33337688446045 -2.86102294921875e-06 L 10.33337688446045 5.645317554473877 L -3.814697265625e-06 5.645317554473877 L -3.814697265625e-06 -2.86102294921875e-06 Z" stroke="none" fill="#079992"/>
        </g>
      </g>
      <g transform="matrix(1, 0, 0, 1, 1152, 1094.64)" filter="url(#Path_5)" style="mix-blend-mode: darken;isolation: isolate">
        <g id="Path_5-2" data-name="Path 5" transform="translate(86.82 6.2) rotate(92)" fill="#079992" stroke-linecap="round" stroke-linejoin="round">
          <path d="M 9.833376884460449 5.145317554473877 L 0.499996542930603 5.145317554473877 L 0.499996542930603 0.4999973475933075 L 9.833376884460449 0.4999973475933075 L 9.833376884460449 5.145317554473877 Z" stroke="none"/>
          <path d="M 0.9999961853027344 0.9999971389770508 L 0.9999961853027344 4.645317554473877 L 9.333376884460449 4.645317554473877 L 9.333376884460449 0.9999971389770508 L 0.9999961853027344 0.9999971389770508 M -3.814697265625e-06 -2.86102294921875e-06 L 10.33337688446045 -2.86102294921875e-06 L 10.33337688446045 5.645317554473877 L -3.814697265625e-06 5.645317554473877 L -3.814697265625e-06 -2.86102294921875e-06 Z" stroke="none" fill="#079992"/>
        </g>
      </g>
      <g id="Path_12" data-name="Path 12" transform="translate(1227.667 1097.978)" fill="#079992" stroke-linecap="round" stroke-linejoin="bevel" style="mix-blend-mode: darken;isolation: isolate">
        <path d="M 31.83337783813477 4.833376884460449 L 0.4999970197677612 4.833376884460449 L 0.4999970197677612 0.4999970197677612 L 31.83337783813477 0.4999970197677612 L 31.83337783813477 4.833376884460449 Z" stroke="none"/>
        <path d="M 0.9999961853027344 0.9999971389770508 L 0.9999961853027344 4.333376884460449 L 31.33337783813477 4.333376884460449 L 31.33337783813477 0.9999971389770508 L 0.9999961853027344 0.9999971389770508 M -3.814697265625e-06 -2.86102294921875e-06 L 32.33337783813477 -2.86102294921875e-06 L 32.33337783813477 5.333376884460449 L -3.814697265625e-06 5.333376884460449 L -3.814697265625e-06 -2.86102294921875e-06 Z" stroke="none" fill="#079992"/>
      </g>
      <g id="Group_4" data-name="Group 4">
        <g id="Group_3" data-name="Group 3" transform="translate(50 22)">
          <g id="Group_2" data-name="Group 2" transform="translate(29 -198)">
            <g id="Group_1" data-name="Group 1" transform="translate(1146 1275)">
              <rect id="Rectangle_3" data-name="Rectangle 3" width="3" height="28" transform="translate(26 6)" fill="#079992"/>
              <rect id="Rectangle_4" data-name="Rectangle 4" width="3" height="28" transform="translate(9 6)" fill="#079992"/>
            </g>
          </g>
          <path id="Path_2" data-name="Path 2" d="M25.5,0,44.667,9h-38Z" transform="translate(1168 1147)" fill="#079992"/>
          <ellipse id="Ellipse_3" data-name="Ellipse 3" cx="3.5" cy="3" rx="3.5" ry="3" transform="translate(1198 1154)" fill="#079992"/>
          <ellipse id="Ellipse_4" data-name="Ellipse 4" cx="3.5" cy="3" rx="3.5" ry="3" transform="translate(1183 1154)" fill="#079992"/>
          <g id="Ellipse_1" data-name="Ellipse 1" transform="translate(1168 1103)" fill="#fff" stroke="#079992" stroke-width="4">
            <ellipse cx="25.5" cy="24.5" rx="25.5" ry="24.5" stroke="none"/>
            <ellipse cx="25.5" cy="24.5" rx="23.5" ry="22.5" fill="none"/>
          </g>
        </g>
        <g id="globe-grid" transform="matrix(0.999, 0.035, -0.035, 0.999, 1222.395, 1126.408)">
          <path id="Path_6" data-name="Path 6" d="M21.883,41.159C10.9,41.159,2,32.542,2,21.913S10.9,2.667,21.883,2.667s19.883,8.617,19.883,19.246S32.859,41.147,21.883,41.159Zm0-37.392c-10.354,0-18.747,8.124-18.747,18.146S11.53,40.059,21.883,40.059,40.63,31.935,40.63,21.913,32.232,3.778,21.883,3.767Z" fill="rgba(171,40,73,0.61)"/>
          <path id="Path_7" data-name="Path 7" d="M38.228,24.66a.347.347,0,0,1-.243-.113A23.048,23.048,0,0,0,21.878,18.12,23.048,23.048,0,0,0,5.77,24.547a.329.329,0,0,1-.536-.027,1.4,1.4,0,0,1-.247-.9,1.24,1.24,0,0,1,.3-.846A23.436,23.436,0,0,1,21.878,16.12a23.436,23.436,0,0,1,16.594,6.653,1.436,1.436,0,0,1,.269,1.125c-.058.448-.269.762-.513.762Z" transform="translate(0 -6.898)" fill="rgba(171,40,73,0.61)"/>
          <path id="Path_8" data-name="Path 8" d="M21.883,59.21a23.407,23.407,0,0,1-16.6-6.663A1.531,1.531,0,0,1,5.059,51.2c.135-.49.453-.68.712-.425A23.017,23.017,0,0,0,21.883,57.21,23.017,23.017,0,0,0,38,50.773c.258-.255.577-.065.712.425a1.531,1.531,0,0,1-.224,1.349,23.407,23.407,0,0,1-16.6,6.663Z" transform="translate(0 -24.608)" fill="rgba(171,40,73,0.61)"/>
          <path id="Path_9" data-name="Path 9" d="M27,41.159c-4.486,0-8-8.454-8-19.246S22.514,2.667,27,2.667s8,8.454,8,19.246S31.486,41.159,27,41.159ZM27,3.767c-3.921,0-7.111,8.138-7.111,18.146S23.079,40.059,27,40.059s7.111-8.138,7.111-18.146S30.921,3.767,27,3.767Z" transform="translate(-5.117)" fill="rgba(171,40,73,0.61)"/>
          <path id="Path_10" data-name="Path 10" d="M37,41.159c-.552,0-1-.246-1-.55V3.217c0-.3.448-.55,1-.55s1,.246,1,.55V40.609C38,40.913,37.552,41.159,37,41.159Z" transform="translate(-15.117)" fill="rgba(171,40,73,0.61)"/>
          <path id="Path_11" data-name="Path 11" d="M41.2,38.667H2.568c-.314,0-.568-.448-.568-1s.254-1,.568-1H41.2c.314,0,.568.448.568,1S41.512,38.667,41.2,38.667Z" transform="translate(0 -15.754)" fill="rgba(171,40,73,0.61)"/>
        </g>
        <text id="AMADOU_TRAVEL_TOURS" data-name="AMADOU TRAVEL &amp; TOURS" transform="translate(1153 1179)" fill="#079992" font-size="15" font-family="SegoeUI-BoldItalic, Segoe UI" font-weight="700" font-style="italic"><tspan x="0" y="16">AMADOU TRAVEL </tspan><tspan y="16" fill="#888">&amp;</tspan><tspan y="16" fill="#707070"> </tspan><tspan y="16" fill="#ab2849">TOURS</tspan></text>
        <text id="Your_everyday_Visa_and_tour_Assistant_" data-name="Your everyday Visa and tour Assistant " transform="translate(1185 1197)" fill="#888" font-size="7" font-family="SegoeUI-BoldItalic, Segoe UI" font-weight="700" font-style="italic"><tspan x="0" y="8">Your everyday Visa and tour Assistant </tspan></text>
        <path id="Path_13" data-name="Path 13" d="M164.06-222.463a15.047,15.047,0,0,0,1.133,4.4c1.133,2.795,1.2,5.24.063,5.24-.315,0-.567.769-.567,1.677a4.621,4.621,0,0,1-.819,2.655c-1.133,1.258-1.826,5.519-1.133,6.777.378.7,1.259-.14,3.274-3.354,1.511-2.306,2.9-4.262,3.148-4.262s1.2,1.467,2.141,3.214c1.385,2.655,1.574,3.493,1.007,5.17-.819,2.725.063,3.284,2.393,1.467a6.163,6.163,0,0,1,2.833-1.467c1.574,0,.441-1.886-1.385-2.306-1.385-.349-1.952-1.188-3.085-4.262l-1.322-3.912h4.974c4.219,0,4.911-.14,4.534-1.118-.441-1.258-2.834-2.515-5.478-2.864a3.962,3.962,0,0,1-2.267-.838,1.537,1.537,0,0,0-1.259-.629c-2.141.14-3.148-.21-3.148-1.048,0-1.467-3.148-6.078-4.093-6.078C164.437-224,164.06-223.371,164.06-222.463Z" transform="matrix(0.105, 0.995, -0.995, 0.105, 1063.772, 990.988)" fill="#ab2849"/>
        <path id="Path_14" data-name="Path 14" d="M1448.527,1070c-20.421,8.177-34.614,13.178-44.634,16.117-31.858,9.344-13.823-4.322-13.823-4.322" transform="translate(-170.437 74.205)" fill="none" stroke="#ab2849" stroke-width="2"/>
      </g>
    </g>
  </g>
</svg>
